<mxfile host="Electron" modified="2023-06-26T06:10:12.460Z" agent="Mozilla/5.0 (Windows NT 10.0; Win64; x64) AppleWebKit/537.36 (KHTML, like Gecko) draw.io/21.2.8 Chrome/112.0.5615.165 Electron/24.2.0 Safari/537.36" etag="G265ZQHsg1Zbxlc4kt72" version="21.2.8" type="device">
  <diagram name="Page-1" id="iDlsqromf0l70S85PzTO">
    <mxGraphModel dx="976" dy="519" grid="1" gridSize="10" guides="1" tooltips="1" connect="1" arrows="1" fold="1" page="1" pageScale="1" pageWidth="850" pageHeight="1100" math="0" shadow="0">
      <root>
        <mxCell id="0" />
        <mxCell id="1" parent="0" />
        <mxCell id="fnPs2gNDWc6gjDu48izh-1" value="Admin" style="shape=umlActor;verticalLabelPosition=bottom;verticalAlign=top;html=1;outlineConnect=0;" parent="1" vertex="1">
          <mxGeometry x="60" y="200" width="30" height="60" as="geometry" />
        </mxCell>
        <mxCell id="fnPs2gNDWc6gjDu48izh-6" value="" style="whiteSpace=wrap;html=1;aspect=fixed;" parent="1" vertex="1">
          <mxGeometry x="160" y="20" width="480" height="480" as="geometry" />
        </mxCell>
        <mxCell id="fnPs2gNDWc6gjDu48izh-7" value="View Assigned Orders" style="ellipse;whiteSpace=wrap;html=1;shadow=0;" parent="1" vertex="1">
          <mxGeometry x="440" y="40" width="140" height="50" as="geometry" />
        </mxCell>
        <mxCell id="fnPs2gNDWc6gjDu48izh-8" value="User" style="shape=umlActor;verticalLabelPosition=bottom;verticalAlign=top;html=1;" parent="1" vertex="1">
          <mxGeometry x="717" y="315" width="30" height="60" as="geometry" />
        </mxCell>
        <mxCell id="fnPs2gNDWc6gjDu48izh-10" value="Create Account" style="ellipse;whiteSpace=wrap;html=1;" parent="1" vertex="1">
          <mxGeometry x="285" y="235" width="140" height="50" as="geometry" />
        </mxCell>
        <mxCell id="fnPs2gNDWc6gjDu48izh-11" value="Place Order" style="ellipse;whiteSpace=wrap;html=1;" parent="1" vertex="1">
          <mxGeometry x="440" y="363" width="140" height="50" as="geometry" />
        </mxCell>
        <mxCell id="fnPs2gNDWc6gjDu48izh-17" value="Kitchen Staff" style="shape=umlActor;verticalLabelPosition=bottom;verticalAlign=top;html=1;outlineConnect=0;" parent="1" vertex="1">
          <mxGeometry x="717" y="116" width="30" height="60" as="geometry" />
        </mxCell>
        <mxCell id="fnPs2gNDWc6gjDu48izh-19" value="Add Order Details" style="ellipse;whiteSpace=wrap;html=1;" parent="1" vertex="1">
          <mxGeometry x="200" y="40" width="140" height="50" as="geometry" />
        </mxCell>
        <mxCell id="fnPs2gNDWc6gjDu48izh-20" value="Update Order Status" style="ellipse;whiteSpace=wrap;html=1;" parent="1" vertex="1">
          <mxGeometry x="440" y="97" width="140" height="50" as="geometry" />
        </mxCell>
        <mxCell id="fnPs2gNDWc6gjDu48izh-21" value="View Order Details" style="ellipse;whiteSpace=wrap;html=1;" parent="1" vertex="1">
          <mxGeometry x="200" y="140" width="140" height="50" as="geometry" />
        </mxCell>
        <mxCell id="fnPs2gNDWc6gjDu48izh-23" value="Search Orders" style="ellipse;whiteSpace=wrap;html=1;" parent="1" vertex="1">
          <mxGeometry x="440" y="155" width="140" height="50" as="geometry" />
        </mxCell>
        <mxCell id="fnPs2gNDWc6gjDu48izh-24" value="Update Order Details" style="ellipse;whiteSpace=wrap;html=1;" parent="1" vertex="1">
          <mxGeometry x="200" y="370" width="140" height="50" as="geometry" />
        </mxCell>
        <mxCell id="fnPs2gNDWc6gjDu48izh-28" value="" style="endArrow=none;html=1;rounded=0;entryX=0;entryY=0.5;entryDx=0;entryDy=0;" parent="1" target="fnPs2gNDWc6gjDu48izh-19" edge="1">
          <mxGeometry width="50" height="50" relative="1" as="geometry">
            <mxPoint x="100" y="210" as="sourcePoint" />
            <mxPoint x="160" y="150" as="targetPoint" />
          </mxGeometry>
        </mxCell>
        <mxCell id="fnPs2gNDWc6gjDu48izh-29" value="" style="endArrow=none;html=1;rounded=0;entryX=0;entryY=0.5;entryDx=0;entryDy=0;" parent="1" target="fnPs2gNDWc6gjDu48izh-21" edge="1">
          <mxGeometry width="50" height="50" relative="1" as="geometry">
            <mxPoint x="100" y="220" as="sourcePoint" />
            <mxPoint x="166" y="165" as="targetPoint" />
          </mxGeometry>
        </mxCell>
        <mxCell id="fnPs2gNDWc6gjDu48izh-33" value="" style="endArrow=none;html=1;rounded=0;entryX=0;entryY=0.5;entryDx=0;entryDy=0;" parent="1" target="fnPs2gNDWc6gjDu48izh-10" edge="1">
          <mxGeometry width="50" height="50" relative="1" as="geometry">
            <mxPoint x="102" y="230" as="sourcePoint" />
            <mxPoint x="322.2729545384507" y="221.99007438041997" as="targetPoint" />
          </mxGeometry>
        </mxCell>
        <mxCell id="fnPs2gNDWc6gjDu48izh-37" value="" style="endArrow=none;html=1;rounded=0;entryX=0;entryY=0.5;entryDx=0;entryDy=0;" parent="1" target="fnPs2gNDWc6gjDu48izh-24" edge="1">
          <mxGeometry width="50" height="50" relative="1" as="geometry">
            <mxPoint x="102" y="250" as="sourcePoint" />
            <mxPoint x="192" y="370" as="targetPoint" />
          </mxGeometry>
        </mxCell>
        <mxCell id="fnPs2gNDWc6gjDu48izh-39" value="" style="endArrow=none;html=1;rounded=0;exitX=1;exitY=0.5;exitDx=0;exitDy=0;" parent="1" source="fnPs2gNDWc6gjDu48izh-7" edge="1">
          <mxGeometry width="50" height="50" relative="1" as="geometry">
            <mxPoint x="580" y="70" as="sourcePoint" />
            <mxPoint x="700" y="130" as="targetPoint" />
          </mxGeometry>
        </mxCell>
        <mxCell id="fnPs2gNDWc6gjDu48izh-40" value="" style="endArrow=none;html=1;rounded=0;exitX=1;exitY=0.5;exitDx=0;exitDy=0;" parent="1" source="fnPs2gNDWc6gjDu48izh-20" edge="1">
          <mxGeometry width="50" height="50" relative="1" as="geometry">
            <mxPoint x="547.8908729652601" y="105.85786437626894" as="sourcePoint" />
            <mxPoint x="700" y="140" as="targetPoint" />
          </mxGeometry>
        </mxCell>
        <mxCell id="fnPs2gNDWc6gjDu48izh-41" value="" style="endArrow=none;html=1;rounded=0;exitX=1;exitY=0.5;exitDx=0;exitDy=0;" parent="1" source="fnPs2gNDWc6gjDu48izh-23" edge="1">
          <mxGeometry width="50" height="50" relative="1" as="geometry">
            <mxPoint x="576" y="167" as="sourcePoint" />
            <mxPoint x="700" y="150" as="targetPoint" />
          </mxGeometry>
        </mxCell>
        <mxCell id="fnPs2gNDWc6gjDu48izh-42" value="" style="endArrow=none;html=1;rounded=0;exitX=1;exitY=0.5;exitDx=0;exitDy=0;" parent="1" source="fnPs2gNDWc6gjDu48izh-10" edge="1">
          <mxGeometry width="50" height="50" relative="1" as="geometry">
            <mxPoint x="470" y="240" as="sourcePoint" />
            <mxPoint x="700" y="160" as="targetPoint" />
          </mxGeometry>
        </mxCell>
        <mxCell id="fnPs2gNDWc6gjDu48izh-46" value="" style="endArrow=none;html=1;rounded=0;exitX=1;exitY=0.5;exitDx=0;exitDy=0;" parent="1" source="fnPs2gNDWc6gjDu48izh-10" edge="1">
          <mxGeometry width="50" height="50" relative="1" as="geometry">
            <mxPoint x="380" y="280" as="sourcePoint" />
            <mxPoint x="700" y="330" as="targetPoint" />
          </mxGeometry>
        </mxCell>
        <mxCell id="fnPs2gNDWc6gjDu48izh-49" value="" style="endArrow=none;html=1;rounded=0;exitX=1;exitY=0.5;exitDx=0;exitDy=0;" parent="1" source="fnPs2gNDWc6gjDu48izh-11" edge="1">
          <mxGeometry width="50" height="50" relative="1" as="geometry">
            <mxPoint x="590" y="360" as="sourcePoint" />
            <mxPoint x="700" y="360" as="targetPoint" />
          </mxGeometry>
        </mxCell>
      </root>
    </mxGraphModel>
  </diagram>
</mxfile>
